# xmcd
#
# Track frame offsets: 
#        150
#        16602
#        34428
#        49953
#        72727
#        89337
#        108532
#        127597
#        147992
#        160077
#        178052
#        199440
#        221865
#        239127
#        255020
#        275020
#        300093
#        312480
#
# Disc length: 4408 seconds
#
# Revision: 1
# Processed by: cddbd v1.5.2PL0 Copyright (c) Steve Scherf et al.
# Submitted via: ExactAudioCopyFreeDBPlugin 1.0
#
DISCID=0b113612
DTITLE=Harry Connick, Jr. - Oh, My Nola
DYEAR=2007
DGENRE=Jazz Vocal
TTITLE0=Working In The Coal Mine
TTITLE1=Won't You Come Home, Bill Bailey?
TTITLE2=Something You Got
TTITLE3=Let Them Talk
TTITLE4=Jambalaya (On The Bayou)
TTITLE5=Careless Love
TTITLE6=All These People
TTITLE7=Yes We Can Can
TTITLE8=Someday
TTITLE9=Oh, My Nola
TTITLE10=Elijah Rock
TTITLE11=SHEIK OF ARABY
TTITLE12=Lazy Bones
TTITLE13=We Make A Lot Of Love
TTITLE14=Hello Dolly
TTITLE15=Do Dat Thing
TTITLE16=Just Come Home
TTITLE17=Take Her To The Mardi Gras
EXTD=YEAR: 2007
EXTT0=
EXTT1=
EXTT2=
EXTT3=
EXTT4=
EXTT5=
EXTT6=
EXTT7=
EXTT8=
EXTT9=
EXTT10=
EXTT11=
EXTT12=
EXTT13=
EXTT14=
EXTT15=
EXTT16=
EXTT17=
PLAYORDER=
